<?xml version="1.0" encoding="utf-8"?>
<!-- Generator: Adobe Illustrator 22.0.0, SVG Export Plug-In . SVG Version: 6.00 Build 0)  -->
<svg version="1.1" id="Calque_1" xmlns="http://www.w3.org/2000/svg" xmlns:xlink="http://www.w3.org/1999/xlink" x="0px" y="0px"
	 viewBox="0 0 120.4 137.6" style="enable-background:new 0 0 120.4 137.6;" xml:space="preserve">
<g>
	<path d="M48.7,78.5V67.9c0-0.8-0.7-1.5-1.5-1.5H26c-0.8,0-1.5,0.7-1.5,1.5v10.6c0,0.8,0.7,1.5,1.5,1.5h21.2
		C48.1,80,48.7,79.3,48.7,78.5z M45.7,77H27.5v-7.6h18.3L45.7,77L45.7,77z"/>
	<path d="M36.6,84.4H26c-0.8,0-1.5,0.7-1.5,1.5s0.7,1.5,1.5,1.5h10.6c0.8,0,1.5-0.7,1.5-1.5S37.4,84.4,36.6,84.4z"/>
	<path d="M47.2,84.4h-2.5c-0.8,0-1.5,0.7-1.5,1.5s0.7,1.5,1.5,1.5h2.5c0.8,0,1.5-0.7,1.5-1.5S48.1,84.4,47.2,84.4z"/>
	<path d="M118.9,13.6H87.7v-3.5c0-0.8-0.7-1.5-1.5-1.5s-1.5,0.7-1.5,1.5v5v23.3v9.9h-5.3l0,0l0,0H67.1V20.7
		c0-5.9-4.8-10.7-10.7-10.7H23.7V1.5C23.7,0.7,23,0,22.2,0s-1.5,0.7-1.5,1.5V10h-3.9c-5.9,0-10.7,4.8-10.7,10.7v34.1
		C2.3,58.7,0,64,0,69.8v22.9c0,4,2.6,7.4,6.1,8.6v2c0,5.1,3.6,9.3,8.3,10.4v8.2c-4.7,0.7-8.3,4.8-8.3,9.7v4.5c0,0.8,0.7,1.5,1.5,1.5
		h26c0.8,0,1.5-0.7,1.5-1.5V114h3v22.1c0,0.8,0.7,1.5,1.5,1.5h26c0.8,0,1.5-0.7,1.5-1.5v-4.5c0-2.6-1-5.1-2.9-6.9
		c-1.5-1.5-3.4-2.4-5.4-2.8v-8.2c4.7-1.1,8.3-5.4,8.3-10.4V65.7h17.7v64.4c0,0.8,0.7,1.5,1.5,1.5s1.5-0.7,1.5-1.5V65.4
		c1.4-0.4,2.7-1.1,3.7-2.2c1.6-1.6,2.5-3.7,2.5-5.9c0.1-2.3-0.8-4.5-2.5-6.2c-1.1-1.1-2.4-1.9-3.8-2.4v-8.8h31.2
		c0.8,0,1.5-0.7,1.5-1.5V15.1C120.4,14.3,119.8,13.6,118.9,13.6z M9.1,20.7c0-4.3,3.5-7.7,7.7-7.7h39.6c4.3,0,7.7,3.5,7.7,7.7v27.6
		h-7.4c1.2-2.7,1.9-5.7,1.9-8.8c0-12.2-9.9-22.1-22.1-22.1s-22.1,9.9-22.1,22.1c0,3.4,0.8,6.6,2.1,9.4c-2.7,0.6-5.2,1.8-7.4,3.4
		C9.1,52.3,9.1,20.7,9.1,20.7z M55.6,39.4c0,10.5-8.6,19.1-19.1,19.1s-19.1-8.6-19.1-19.1S26,20.3,36.5,20.3S55.6,28.9,55.6,39.4z
		 M3,92.7v-4h11.4V93c0,1.5-0.6,3-1.7,4c-1.2,1.2-2.8,1.8-4.5,1.7C5.3,98.4,3,95.8,3,92.7z M9.1,103.3v-1.7c2-0.1,3.8-0.8,5.3-2.1
		v11.1C11.3,109.6,9.1,106.7,9.1,103.3z M35.1,111v-5.1c0-0.8,0.5-1.4,1.1-1.6c0.5-0.1,1.1,0,1.4,0.4c0.3,0.3,0.4,0.7,0.4,1.1v5.3
		h-2.9V111z M64.1,103.3c0,3.4-2.2,6.3-5.3,7.3V65.7h5.3V103.3z M77.9,62.7H57.3c-0.8,0-1.5,0.7-1.5,1.5v57.6H52
		c-0.8,0-1.5,0.7-1.5,1.5s0.7,1.5,1.5,1.5h5.3c1.8,0,3.5,0.7,4.8,2s2,3,2,4.8v3h-23v-28.9c0-1.2-0.5-2.3-1.3-3.2
		c-1.1-1.1-2.7-1.6-4.2-1.2c-2,0.5-3.4,2.4-3.4,4.5v28.8h-23v-3c0-3.8,3.1-6.8,6.8-6.8h5.2c0.8,0,1.5-0.7,1.5-1.5s-0.7-1.5-1.5-1.5
		h-3.8V92.9V70.2c0-0.8-0.7-1.5-1.5-1.5s-1.5,0.7-1.5,1.5v15.4H3V69.8c0-9,6.5-16.6,15.1-18.2c4,6,10.7,9.9,18.4,9.9
		c7.8,0,14.7-4.1,18.7-10.3H78v11.5H77.9z M89.4,53.1c1.1,1.1,1.7,2.5,1.6,4c0,1.5-0.6,2.8-1.7,3.9s-2.5,1.7-4,1.7h-4.4V51.3H85
		C86.7,51.3,88.3,52,89.4,53.1z M117.4,36.9H87.7V16.6h29.7V36.9z"/>
	<path d="M36.6,27.4c-9.9,0-15.8,4.8-15.8,12.7c0,8.7,7.1,15.8,15.8,15.8s15.8-7.1,15.8-15.8C52.4,32.1,46.5,27.4,36.6,27.4z
		 M36.6,52.9c-7.1,0-12.8-5.7-12.8-12.8c0-8.8,8.9-9.7,12.8-9.7s12.8,0.9,12.8,9.7C49.4,47.2,43.7,52.9,36.6,52.9z"/>
</g>
</svg>
