<?xml version="1.0" encoding="utf-8"?>
<!-- Generator: Adobe Illustrator 22.1.0, SVG Export Plug-In . SVG Version: 6.00 Build 0)  -->
<svg version="1.1" id="Layer_1" xmlns="http://www.w3.org/2000/svg" xmlns:xlink="http://www.w3.org/1999/xlink" x="0px" y="0px"
	 viewBox="0 0 50 50" style="enable-background:new 0 0 50 50;" xml:space="preserve">
<path d="M30.4,34.3c0.8-0.8,0.8-0.8,1.7-1.7c0.9-0.9,1.6-1.6,2-2c2.2-2.2,5.1-2.2,7.4,0c2.1,2,4.1,4.1,6.2,6.2
	c2.2,2.3,2.2,5.2,0,7.5c-0.4,0.4-1.2,1-2.2,1.6c-0.2,0.1-0.5,0.3-0.7,0.4c-0.7,0.4-1.3,0.8-2,1.2c-0.4,0.2-0.7,0.4-0.9,0.5
	c-2.5,1.5-6.7,1.8-9.3,0.8c-0.3-0.1-0.7-0.2-1.4-0.5c-1.1-0.4-2.3-0.9-3.6-1.5c-3.7-1.8-7.3-4-10.8-6.9c-1.4-1.1-2.7-2.4-3.9-3.7
	c-1-1-1.9-2.1-2.8-3.3c-3-3.7-5.3-7.7-7.1-11.7c-0.6-1.4-1.1-2.7-1.5-3.9c-0.2-0.7-0.4-1.2-0.4-1.4c-1-2.7-0.4-6.9,1.2-9.3
	C2.4,6.6,2.6,6.3,2.8,6c0.4-0.6,0.8-1.2,1.2-1.7C4.2,4,4.4,3.8,4.6,3.6C5,3,5.4,2.6,5.8,2.2c2.2-2.2,5.1-2.2,7.4,0
	C14,3.1,17.9,7,19.3,8.4c2.3,2.3,2.3,5.2,0,7.5C19,16.3,18.2,17,17.2,18c-0.9,0.9-0.9,0.9-1.6,1.6c-0.4,0.4-0.5,0.5-0.6,0.6
	c0.1,0.4,0.4,0.9,0.7,1.6c0.6,1.4,1.4,2.7,2.2,4c0.9,1.4,1.8,2.6,2.7,3.5c0.9,0.8,1.9,1.7,3,2.4c1.4,0.9,2.8,1.7,4.3,2.4
	c0.8,0.4,1.4,0.6,1.8,0.8C29.8,34.9,30,34.8,30.4,34.3z M15,20C15,20.1,15,20.1,15,20C15,20.1,15,20.1,15,20z M45.9,38.6
	c-2.1-2.1-4.2-4.2-6.2-6.2c-1.2-1.2-2.5-1.2-3.7,0c-0.4,0.4-1.1,1.1-2,2c-1,1-1,1-1.7,1.7c-0.6,0.6-0.6,0.6-0.8,0.8
	c-0.6,0.6-1.7,0.8-2.5,0.5c-0.4-0.2-1.2-0.5-2.1-0.9c-1.6-0.8-3.1-1.6-4.6-2.6c-1.3-0.9-2.4-1.8-3.4-2.7c-1.1-1.1-2.1-2.4-3.1-3.9
	c-0.9-1.4-1.6-2.8-2.3-4.3c-0.4-0.9-0.7-1.6-0.8-2c-0.3-0.8-0.1-1.8,0.5-2.5c0.1-0.1,0.1-0.1,0.7-0.7c0.7-0.7,0.7-0.7,1.6-1.6
	c1-1,1.8-1.8,2.1-2.1c1.3-1.3,1.3-2.6,0-3.9c-1.4-1.4-5.3-5.3-6.2-6.2c-1.2-1.2-2.5-1.2-3.8,0C7.3,4.3,7,4.7,6.6,5.2
	C6.5,5.4,6.3,5.6,6.1,5.8C5.7,6.3,5.3,6.9,5,7.4C4.7,7.8,4.6,8,4.5,8.2c-1.2,1.8-1.7,5-0.9,7.1C3.6,15.5,3.7,16,4,16.6
	c0.4,1.1,0.9,2.3,1.4,3.6c1.7,3.8,3.9,7.6,6.7,11.1c0.9,1.1,1.8,2.1,2.7,3.1c1.2,1.2,2.4,2.4,3.7,3.5c3.3,2.7,6.7,4.9,10.2,6.5
	c1.2,0.6,2.3,1.1,3.4,1.5c0.6,0.2,1,0.4,1.3,0.5c2,0.8,5.3,0.5,7.2-0.6c0.2-0.1,0.5-0.3,0.9-0.5c0.7-0.4,1.3-0.8,2-1.2
	c0.2-0.1,0.4-0.3,0.7-0.4c0.8-0.5,1.5-1,1.7-1.3C47.1,41.2,47.1,39.9,45.9,38.6z"/>
</svg>
